nColumns=28
nRows=10
DataType=double
version=3
OpenSimVersion=4.1
endheader
time	1_ground_force_vx	1_ground_force_vy	1_ground_force_vz	1_ground_force_px	1_ground_force_py	1_ground_force_pz	1_ground_torque_x	1_ground_torque_y	1_ground_torque_z	2_ground_force_vx	2_ground_force_vy	2_ground_force_vz	2_ground_force_px	2_ground_force_py	2_ground_force_pz	2_ground_torque_x	2_ground_torque_y	2_ground_torque_z	3_ground_force_vx	3_ground_force_vy	3_ground_force_vz	3_ground_force_px	3_ground_force_py	3_ground_force_pz	3_ground_torque_x	3_ground_torque_y	3_ground_torque_z
0.5416666666666667	34.90253347741549	783.4750265779533	76.96323004784408	0.4088832872947061	-0.005999999999990841	0.01604909110768984	-0.02422353943604339	-0.5602129234355488	-0.05532289373134164	2.528985379680529e-13	1.590568387929299e-12	-6.515225176940145e-13	-0.2999999989465623	-0.00599999999999083	0.2000000015791605	-3.717006968389485e-14	-9.911660226716151e-14	3.762937499950589e-14	25.83347624602924	55.61522043318133	4.199500453360312	0.7030720378103498	-0.00599999999999083	0.1838510454371519	-0.1117041134377415	-0.2204789263852791	-0.03372941393866243
0.5425000000000001	35.54492958608412	782.9288325257374	76.84518922835289	0.4092598208973519	-0.005999999999990964	0.01603021390162811	-0.02526800726761597	-0.5722216805518924	-0.05647606218151267	1.156087959220621e-13	1.891745831041492e-12	-9.253350664757107e-13	-0.2999999989465544	-0.005999999999990952	0.2000000015791525	-3.353746350488592e-14	-1.123029890144147e-13	5.06448032134242e-14	27.94197376885387	60.44164115707791	4.978117493868041	0.6980605177586946	-0.005999999999990953	0.1838223146895487	-0.1203241472255371	-0.2356335166575839	-0.03625857914022576
0.5433333333333334	36.18621975807566	782.3149445025449	76.71612848197685	0.4096381589331669	-0.005999999999991088	0.01600763356900286	-0.02641409681901487	-0.5858032087991504	-0.05777226075221345	-8.857618013837606e-15	2.114950162478762e-12	-1.146717979020545e-12	-0.2999999989465462	-0.005999999999991077	0.2000000015791453	-2.953606257435656e-14	-1.213906691621662e-13	6.101331176936786e-14	29.97517778543074	65.31850583648161	5.795175377379954	0.6939108074733158	-0.005999999999991078	0.1838673467841139	-0.1288629020704638	-0.2522661227943046	-0.03899073164329191
0.5441666666666668	36.82662721457856	781.6342559567105	76.57590860523032	0.4100175159007671	-0.005999999999991207	0.01598153662342445	-0.0276706338492765	-0.6010325028779481	-0.05921701871963668	-1.190576498458065e-13	2.263804174453327e-12	-1.316450793870274e-12	-0.2999999989465377	-0.005999999999991196	0.2000000015791391	-2.530049110656879e-14	-1.266315317023709e-13	6.879302878766543e-14	31.90809574748673	70.22186120883316	6.644007396728148	0.6906137608346874	-0.005999999999991196	0.1839804508810609	-0.1372639813572976	-0.2705983912136368	-0.04194557581730779
0.5450000000000002	37.46657788909008	780.8880969955023	76.42433893336637	0.4103970354549349	-0.005999999999991312	0.01595221730669273	-0.02904622334743504	-0.6179755288290285	-0.06081496228605535	-2.140427068913603e-13	2.343248747568611e-12	-1.436424948722014e-12	-0.2999999989465295	-0.0059999999999913	0.2000000015791337	-2.095560559090658e-14	-1.283383817023584e-13	7.409565994827099e-14	33.71650477374571	75.12829726926881	7.517301265453403	0.6881468151581539	-0.005999999999991301	0.1841552148705545	-0.1454713838986071	-0.2908513385339217	-0.04514112047956254
0.5458333333333334	38.10667886393615	780.0781619443261	76.26119056534786	0.4107758155820282	-0.005999999999991395	0.01592006788057457	-0.03054905246670961	-0.6366863871064182	-0.06256957581147145	-2.933248381549228e-13	2.359279161281443e-12	-1.509474229675341e-12	-0.2999999989465216	-0.005999999999991384	0.2000000015791292	-1.661469749311992e-14	-1.268707915524281e-13	7.70778407915112e-14	35.37736929804213	80.01526106638333	8.407245599318452	0.6864752856976223	-0.005999999999991385	0.1843847154192614	-0.1534293301705766	-0.3132386992581536	-0.04859279903137464
0.5466666666666667	38.74769338973219	779.2064307360656	76.08621109168331	0.411152934211126	-0.005999999999991454	0.01588556680421472	-0.03218669619303345	-0.65720462045844	-0.06448297561404774	-3.568360333434227e-13	2.318686696251002e-12	-1.539202481002954e-12	-0.2999999989465146	-0.005999999999991443	0.2000000015791253	-1.237816767651713e-14	-1.226214640333768e-13	7.793242209015556e-14	36.86924328022192	84.86135081401861	9.305690762384177	0.6855538660315011	-0.005999999999991444	0.1846617242009401	-0.161081995875724	-0.3379598925847939	-0.05231257188190497
0.5475000000000001	39.39051326633454	778.2750873991828	75.89914018685295	0.411527474646468	-0.005999999999991488	0.01584926510980778	-0.03396593149566249	-0.6795527713679277	-0.06655570569424943	-4.048823634744569e-13	2.228810933991349e-12	-1.52981288764939e-12	-0.2999999989465085	-0.005999999999991477	0.2000000015791219	-8.332650050837804e-15	-1.160033662053332e-13	7.687989831620077e-14	38.17264962964109	89.64658644696182	10.20431733926084	0.6853282763127818	-0.005999999999991477	0.1849789040197592	-0.168373189373346	-0.3651927949746411	-0.05630803661935971
0.5483333333333335	40.03612944525149	777.286439080381	75.69972537630379	0.4118985501430033	-0.0059999999999915	0.01581177134618017	-0.03589256559358306	-0.7037342826939553	-0.0687865638902542	-4.380946112355035e-13	2.097307300085414e-12	-1.485942618987065e-12	-0.2999999989465038	-0.005999999999991489	0.2000000015791188	-4.550554060736871e-15	-1.07437845952554e-13	7.416016217559908e-14	39.27042953250022	94.35265325512177	11.09480554340629	0.6857370025677746	-0.00599999999999149	0.1853289896881031	-0.1752460268580356	-0.3950865586575272	-0.06058157993652385
0.5491666666666668	40.68560175466139	776.2428385579028	75.4877372564895	0.4122653269678734	-0.005999999999991493	0.01577373539504864	-0.03797128410794735	-0.7297318314716953	-0.07117246671230233	-4.573769346170301e-13	1.931933529495097e-12	-1.412506069824678e-12	-0.2999999989465004	-0.005999999999991482	0.2000000015791161	-1.089989327965158e-15	-9.734389625894799e-14	7.002473993884747e-14	40.14805458485935	98.96311584361739	11.96899962710813	0.6867130726275074	-0.005999999999991483	0.1857049497832636	-0.1816426815398554	-0.4277547799106153	-0.06512961478526426
